HIERARCHY
ROOT Hips
{
	OFFSET 0.000000 0.000000 0.000000
	CHANNELS 6 Xposition Yposition Zposition Zrotation Yrotation Xrotation 
	JOINT LHipJoint
	{
		OFFSET 0.000000 0.000000 0.000000
		CHANNELS 3 Zrotation Yrotation Xrotation
		JOINT LeftUpLeg
		{
			OFFSET 8.178360 -10.767780 5.035740
			CHANNELS 3 Zrotation Yrotation Xrotation
			JOINT LeftLeg
			{
				OFFSET 14.688660 -40.356780 0.000000
				CHANNELS 3 Zrotation Yrotation Xrotation
				JOINT LeftFoot
				{
					OFFSET 15.373200 -42.237540 0.000000
					CHANNELS 3 Zrotation Yrotation Xrotation
					JOINT LeftToeBase
					{
						OFFSET 0.945840 -2.598660 13.935300
						CHANNELS 3 Zrotation Yrotation Xrotation
						End Site
						{
							OFFSET 0.000000 0.000000 0.000000
						}
					}
				}
			}
		}
	}
	JOINT RHipJoint
	{
		OFFSET 0.000000 0.000000 0.000000
		CHANNELS 3 Zrotation Yrotation Xrotation
		JOINT RightUpLeg
		{
			OFFSET -7.833120 -10.767780 5.035740
			CHANNELS 3 Zrotation Yrotation Xrotation
			JOINT RightLeg
			{
				OFFSET -15.255180 -41.913300 0.000000
				CHANNELS 3 Zrotation Yrotation Xrotation
				JOINT RightFoot
				{
					OFFSET -15.409560 -42.337380 0.000000
					CHANNELS 3 Zrotation Yrotation Xrotation
					JOINT RightToeBase
					{
						OFFSET -0.988380 -2.715540 14.178900
						CHANNELS 3 Zrotation Yrotation Xrotation
						End Site
						{
							OFFSET 0.000000 0.000000 0.000000
						}
					}
				}
			}
		}
	}
	JOINT LowerBack
	{
		OFFSET 0.000000 0.000000 0.000000
		CHANNELS 3 Zrotation Yrotation Xrotation
		JOINT Spine
		{
			OFFSET 0.169620 12.213540 -1.160280
			CHANNELS 3 Zrotation Yrotation Xrotation
			JOINT Spine1
			{
				OFFSET 0.340320 12.293100 -0.256500
				CHANNELS 3 Zrotation Yrotation Xrotation
				JOINT Neck
				{
					OFFSET 0.000000 0.000000 0.000000
					CHANNELS 3 Zrotation Yrotation Xrotation
					JOINT Neck1
					{
						OFFSET -0.325020 10.477440 1.032120
						CHANNELS 3 Zrotation Yrotation Xrotation
						JOINT Head
						{
							OFFSET 0.624420 10.568160 -0.743820
							CHANNELS 3 Zrotation Yrotation Xrotation
							End Site
							{
								OFFSET 0.000000 0.000000 0.000000
							}
						}
					}
				}
				JOINT LeftShoulder
				{
					OFFSET 0.000000 0.000000 0.000000
					CHANNELS 3 Zrotation Yrotation Xrotation
					JOINT LeftArm
					{
						OFFSET 20.174460 7.205340 -1.867260
						CHANNELS 3 Zrotation Yrotation Xrotation
						JOINT LeftForeArm
						{
							OFFSET 29.898000 -0.000000 -0.000000
							CHANNELS 3 Zrotation Yrotation Xrotation
							JOINT LeftHand
							{
								OFFSET 20.901360 -0.000000 -0.000000
								CHANNELS 3 Zrotation Yrotation Xrotation
								JOINT LeftFingerBase
								{
									OFFSET 0.000000 0.000000 0.000000
									CHANNELS 3 Zrotation Yrotation Xrotation
									JOINT LeftHandIndex1
									{
										OFFSET 4.291560 -0.000000 -0.000000
										CHANNELS 3 Zrotation Yrotation Xrotation
										End Site
										{
											OFFSET 0.000000 0.000000 0.000000
										}
									}
								}
								JOINT LThumb
								{
									OFFSET 0.000000 0.000000 0.000000
									CHANNELS 3 Zrotation Yrotation Xrotation
									End Site
									{
										OFFSET 0.000000 0.000000 0.000000
									}
								}
							}
						}
					}
				}
				JOINT RightShoulder
				{
					OFFSET 0.000000 0.000000 0.000000
					CHANNELS 3 Zrotation Yrotation Xrotation
					JOINT RightArm
					{
						OFFSET -18.819600 8.244300 -2.427900
						CHANNELS 3 Zrotation Yrotation Xrotation
						JOINT RightForeArm
						{
							OFFSET -31.451400 -0.000000 -0.000000
							CHANNELS 3 Zrotation Yrotation Xrotation
							JOINT RightHand
							{
								OFFSET -20.665020 -0.000000 -0.000000
								CHANNELS 3 Zrotation Yrotation Xrotation
								JOINT RightFingerBase
								{
									OFFSET 0.000000 0.000000 0.000000
									CHANNELS 3 Zrotation Yrotation Xrotation
									JOINT RightHandIndex1
									{
										OFFSET -3.735180 -0.000000 -0.000000
										CHANNELS 3 Zrotation Yrotation Xrotation
										End Site
										{
											OFFSET 0.000000 0.000000 0.000000
										}
									}
								}
								JOINT RThumb
								{
									OFFSET 0.000000 0.000000 0.000000
									CHANNELS 3 Zrotation Yrotation Xrotation
									End Site
									{
										OFFSET 0.000000 0.000000 0.000000
									}
								}
							}
						}
					}
				}
			}
		}
	}
}
MOTION
Frames:	11
Frame Time:	0.0333333
-73.114530 106.440540 91.085400 2.480998 -24.196345 -1.509462 -3.613979 1.085985 2.012063 -11.633255 -12.923950 -12.045427 -0.093682 7.259439 21.997258 1.601929 -16.134762 5.854375 0.187100 -2.786100 -7.683900 1.223198 -0.955304 1.199356 13.937491 7.637008 -13.819226 -3.171744 -11.333284 34.586200 -1.439758 5.226981 -4.659826 -0.041000 1.306800 -3.593300 2.830808 0.765099 10.329955 1.610215 1.486515 1.739009 -1.070143 0.716667 -3.414902 -11.727067 0.289574 -11.803056 2.697910 2.210156 29.428189 4.051000 -1.100900 16.870600 -5.891217 -1.696689 -1.428202 -81.358680 -2.371356 24.567655 21.535583 -29.643769 -7.061429 -1.186058 -2.298194 0.512357 22.671721 20.494770 9.723300 -7.125000 0.000000 0.000000 -5.505900 54.575400 -1.298200 4.931121 1.229996 -1.174107 79.078589 -3.575395 10.246192 -22.659238 32.277820 -7.117293 0.363186 -0.148202 4.399711 -15.279369 10.672623 -2.999400 7.125000 0.000000 0.000000 8.054700 -18.857700 5.069100 
-73.521258 106.521288 90.838350 1.822726 -21.909734 -0.706130 -3.560089 1.022701 1.906083 -10.621586 -13.112074 -12.994859 -0.020390 7.392205 22.279967 1.743654 -16.847017 4.367846 0.676000 -5.257300 -14.643800 1.254169 -0.930615 1.227889 14.763194 6.326516 -14.228930 -3.047694 -11.156885 34.024082 -1.285362 4.430630 -4.516904 -0.027800 1.076500 -2.959200 3.786080 0.836223 10.183731 1.703824 1.699671 1.593700 -1.456431 0.818510 -3.604082 -12.038364 0.046365 -11.416498 2.696573 1.935641 29.184169 4.075600 -1.228100 16.668100 -5.913098 -1.662759 -1.447110 -81.932567 -2.112788 23.843593 21.437602 -29.501574 -6.990105 -1.176137 -2.262516 1.154109 22.269847 20.093287 9.363700 -7.125000 0.000000 0.000000 -5.818500 54.048400 -1.297500 4.935281 1.248197 -1.164970 78.755892 -3.593070 10.299207 -22.090509 31.625832 -6.780467 0.390328 -0.148577 3.946755 -15.961134 10.521094 -3.098600 7.125000 0.000000 0.000000 7.557000 -18.968300 4.731500 
-73.993068 106.793646 90.599130 1.530233 -19.878587 -0.357330 -3.479725 0.972506 1.860412 -9.797222 -12.377733 -13.847331 0.014816 7.512302 22.502200 1.805691 -15.717867 3.530269 0.472700 -4.409400 -12.231500 1.272541 -0.916174 1.240515 15.347296 5.202759 -14.129687 -2.852680 -10.877865 33.112782 -1.091566 3.467350 -4.249256 -0.020600 0.926100 -2.545400 4.035029 0.997543 10.153803 1.783924 1.948218 1.628040 -1.488145 0.934185 -3.546924 -12.788305 -0.487084 -11.672675 3.546042 1.325815 29.109354 4.569500 -1.458100 16.796800 -5.971434 -1.548811 -1.476079 -82.710699 -1.667350 22.636706 21.118397 -29.105035 -6.786110 -1.174755 -2.138708 2.255317 21.764785 18.577391 8.506900 -7.125000 0.000000 0.000000 -5.861900 52.255200 -1.049900 4.960952 1.312377 -1.127900 78.322432 -3.211351 9.609904 -21.312774 30.754779 -6.351042 0.355445 -0.186332 5.382311 -15.167598 11.114963 -3.105800 7.125000 0.000000 0.000000 8.129500 -18.378300 5.204400 
-74.329902 107.015388 90.471990 1.357520 -17.499545 -0.158173 -3.417058 0.966257 1.846245 -9.111323 -11.580149 -14.344204 -0.010526 7.611138 22.586334 1.589153 -10.453855 1.165695 0.664500 -5.213300 -14.517800 1.293055 -0.933744 1.271169 15.725599 4.102737 -13.745789 -2.640698 -10.574184 32.097728 -0.855419 2.235925 -4.323143 -0.009000 0.611000 -1.679000 4.310118 0.962404 10.236915 1.842460 1.944565 1.568914 -1.588642 0.935520 -3.750122 -12.678534 -0.503612 -11.218372 3.436703 1.259970 28.790540 4.461000 -1.438900 16.493800 -6.006458 -1.492060 -1.505650 -83.558501 -0.685023 21.476313 20.857065 -28.797383 -6.605964 -1.249397 -2.182320 2.412258 22.502489 19.140896 9.080300 -7.125000 0.000000 0.000000 -5.230000 53.043400 -1.037200 4.992193 1.282796 -1.118588 77.787610 -3.198425 9.348999 -20.568810 29.868417 -5.936436 0.359661 -0.184879 5.652721 -15.231326 10.734995 -3.015400 7.125000 0.000000 0.000000 8.085500 -18.766400 5.105400 
-74.535372 107.306424 90.374976 1.937539 -15.098226 -0.089229 -3.385023 0.981736 1.804712 -8.735764 -11.913010 -14.368132 -0.089969 7.526512 22.278989 1.266736 -7.603572 1.385480 0.477600 -4.431800 -12.294600 1.325130 -0.958718 1.307132 15.203567 3.237922 -13.522023 -2.450574 -10.310683 31.169498 -0.541429 0.669790 -4.317448 -0.013800 0.759400 -2.087100 3.940884 0.997797 10.150553 1.714386 1.940773 1.590731 -1.677490 0.940591 -3.679125 -12.908437 -0.795948 -11.219306 3.873028 0.865887 28.753420 4.669500 -1.556600 16.532500 -6.085310 -1.413148 -1.520023 -83.906443 -0.188843 21.279531 20.236869 -28.054340 -6.226680 -1.294223 -2.155383 1.845829 22.871596 18.441586 8.964400 -7.125000 0.000000 0.000000 -4.566600 52.341800 -0.826700 5.001903 1.302430 -1.094846 77.438044 -3.038414 8.480029 -20.103934 29.320913 -5.686970 0.351324 -0.189833 5.669274 -14.921684 10.750408 -2.956900 7.125000 0.000000 0.000000 8.308600 -18.764100 5.249700 
-74.658900 107.502864 90.261090 2.224469 -12.864507 -0.193710 -3.314602 1.034141 1.827621 -7.789728 -12.147204 -14.064418 -0.134637 7.439532 21.997625 1.107784 -6.427697 2.585629 0.514100 -4.595600 -12.758500 1.327633 -1.009923 1.324901 15.168052 2.835858 -12.817605 -2.324590 -10.147449 30.571784 -0.046676 -1.709437 -4.796429 -0.059300 1.571000 -4.321400 3.682940 1.000133 10.392420 1.687589 1.919800 1.668653 -1.686195 0.945505 -3.676364 -12.062305 -0.516096 -11.326378 3.037941 1.216528 28.867146 4.130000 -1.381100 16.561000 -6.151779 -1.463011 -1.505495 -84.150660 0.055652 20.625727 19.306902 -26.910097 -5.666209 -1.361624 -2.138498 2.900470 22.745879 18.564276 8.974900 -7.125000 0.000000 0.000000 -4.703100 52.457200 -0.864800 5.064150 1.219134 -1.113613 77.107007 -2.875092 7.900900 -19.707265 28.821665 -5.466586 0.366724 -0.177742 5.422981 -15.221463 10.274607 -2.886900 7.125000 0.000000 0.000000 8.094700 -19.244600 5.024500 
-74.629374 107.765580 90.252054 2.555262 -11.107521 -0.225171 -3.221481 1.118285 1.922798 -6.822591 -11.804978 -13.576792 -0.170226 7.356596 21.706329 0.965110 -5.218959 3.094522 0.692800 -5.321100 -14.826600 1.315713 -1.050530 1.307375 14.927370 2.942070 -12.367132 -2.221099 -10.021991 30.075876 0.366272 -3.555613 -4.837352 -0.023300 0.984800 -2.707000 3.592085 1.212182 10.353667 1.607670 2.187598 1.738785 -1.897167 1.083537 -3.536470 -11.918239 -0.611447 -11.697969 3.027911 1.131329 29.341773 4.105200 -1.413200 16.957700 -6.216038 -1.431447 -1.507962 -84.238940 0.516524 20.263486 18.564316 -25.987007 -5.234961 -1.471687 -2.077126 4.367631 23.207244 18.439565 9.127400 -7.125000 0.000000 0.000000 -4.133200 52.391600 -0.753000 5.080037 1.181523 -1.124867 76.888777 -3.207271 7.242352 -19.723234 28.849437 -5.471275 0.384667 -0.172515 4.770210 -15.597070 10.247419 -2.954400 7.125000 0.000000 0.000000 7.818300 -19.252200 4.848300 
-74.461260 107.945142 90.262902 2.838734 -9.538215 -0.197720 -3.105955 1.232367 2.019157 -5.793886 -11.664933 -12.957343 -0.146193 7.404149 21.764134 0.608065 -2.740413 3.496469 0.788800 -5.669500 -15.828500 1.298817 -1.102033 1.294296 14.707639 3.026262 -11.913644 -2.106682 -9.876990 29.502254 0.891519 -5.826719 -4.892412 -0.047800 1.410800 -3.880000 3.436292 1.323875 10.401113 1.501606 2.323462 1.755598 -2.090797 1.147684 -3.550579 -12.093365 -0.644535 -11.695192 3.510856 1.089873 29.548090 4.390300 -1.402800 17.090700 -6.295232 -1.379972 -1.505273 -84.114600 0.873108 19.598162 17.797296 -25.011602 -4.803745 -1.484025 -2.079989 5.562535 22.423775 18.867593 8.973000 -7.125000 0.000000 0.000000 -5.097600 52.724500 -0.971000 5.088760 1.188911 -1.119141 76.723820 -3.287421 7.120365 -19.559161 28.646985 -5.384645 0.390012 -0.152909 4.132962 -15.543127 9.792581 -2.812500 7.125000 0.000000 0.000000 7.861500 -19.738200 4.789500 
-74.136474 107.997570 90.280980 3.164949 -7.380331 -0.258497 -2.985677 1.336745 2.103824 -5.033118 -11.363740 -12.401909 -0.082648 7.512472 22.005243 0.225090 -0.370728 4.498807 0.204300 -2.910300 -8.029000 1.264499 -1.153050 1.291433 14.264822 2.237314 -11.770074 -2.093808 -9.886421 29.440409 1.196283 -7.165159 -5.439005 -0.030500 1.127500 -3.099700 3.280739 1.193004 10.394151 1.433597 2.133978 1.812096 -2.170232 1.057786 -3.453708 -11.887684 -0.539683 -11.776689 3.589714 1.212919 29.892291 4.416200 -1.322500 17.294600 -6.345003 -1.356649 -1.503294 -84.134193 1.290255 18.752279 17.305937 -24.386210 -4.531836 -1.518138 -2.071133 5.706641 22.462008 18.798640 8.971200 -7.125000 0.000000 0.000000 -5.007100 52.658200 -0.945600 5.105310 1.155422 -1.118808 76.385854 -3.208314 7.228584 -19.302159 28.337274 -5.249681 0.399634 -0.175899 4.010407 -15.816700 10.345870 -3.029800 7.125000 0.000000 0.000000 7.652500 -19.129500 4.764600 
-73.694796 108.086748 90.442464 2.805575 -5.523374 -0.230348 -2.807405 1.469876 2.232308 -3.834091 -10.393179 -11.919006 0.046783 7.714751 22.461995 -0.225963 2.260127 4.779588 0.109300 -2.131200 -5.868400 1.203035 -1.208742 1.268299 14.514087 1.502966 -11.413943 -2.033039 -9.804427 29.121803 1.474069 -8.343094 -5.724057 -0.037100 1.243600 -3.419400 3.672548 1.070977 10.037676 1.554629 2.014344 1.935529 -2.195456 0.994115 -3.052194 -11.895677 -0.440138 -11.926210 3.541158 1.433973 30.147289 4.434700 -1.251300 17.439000 -6.401327 -1.363725 -1.475852 -84.215164 1.147476 17.634103 16.641147 -23.493531 -4.164852 -1.590627 -2.064097 5.733567 22.806820 18.801130 9.143300 -7.125000 0.000000 0.000000 -4.581300 52.730100 -0.872900 5.137278 1.119582 -1.123221 75.961404 -3.100480 7.585717 -19.432274 28.504160 -5.324265 0.386447 -0.109472 4.079880 -15.228965 8.630715 -2.421700 7.125000 0.000000 0.000000 8.115500 -20.990800 4.716500 
-73.106094 108.107232 90.596724 2.865151 -3.818332 -0.229777 -2.699540 1.619632 2.376098 -3.319176 -9.512594 -11.148052 0.104425 7.758909 22.473638 -0.783904 5.286681 5.493767 0.039700 -1.286200 -3.536600 1.160472 -1.276752 1.261568 14.176075 0.805500 -11.166821 -1.983127 -9.750302 28.853275 1.719368 -9.369009 -5.957290 -0.059000 1.567000 -4.310400 3.501403 1.078899 9.837059 1.581335 2.001582 1.914256 -2.081882 0.980126 -3.026472 -11.921447 -0.424510 -11.939395 3.547836 1.512414 30.598816 4.467400 -1.245400 17.714100 -6.435778 -1.346687 -1.476876 -84.352637 1.559025 16.653720 16.238634 -22.956349 -3.961195 -1.579274 -1.900223 6.063513 22.529580 16.845166 8.166600 -7.125000 0.000000 0.000000 -4.301500 50.443800 -0.578000 5.155742 1.079090 -1.133878 75.729931 -3.236362 7.338467 -19.225743 28.259022 -5.216316 0.388554 -0.143047 4.298995 -15.377454 9.433951 -2.678900 7.125000 0.000000 0.000000 7.987000 -20.126600 4.797300 
